# xmcd
#
# Track frame offsets: 
#        182
#        23370
#        35640
#        53397
#        68910
#        98292
#        120805
#        144545
#        167382
#        189130
#
# Disc length: 3207 seconds
#
# Revision: 4
# Processed by: cddbd v1.5.1PL0 Copyright (c) Steve Scherf et al.
# Submitted via: ExactAudioCopy v0.95a5
#
DISCID=640c850a
DTITLE=Hooker 'n Heat - Live At The Fox Venice Theatre
DYEAR=1900
DGENRE=Blues
TTITLE0=Hell Hound
TTITLE1=Strut My Stuff
TTITLE2=Open Up Your Back Door
TTITLE3=House Of Blue Lights
TTITLE4=It Hurts Me Too
TTITLE5=Wrapped Up
TTITLE6=Medley: Let's Work Together/Going Up The Country
TTITLE7=Tease Me Baby
TTITLE8=Serves Me Right To Suffer
TTITLE9=Nobody Else But You
EXTD=
EXTT0=
EXTT1=
EXTT2=
EXTT3=
EXTT4=
EXTT5=
EXTT6=
EXTT7=
EXTT8=
EXTT9=
PLAYORDER=
